<svg width="29" height="30" viewBox="0 0 29 30" fill="none" xmlns="http://www.w3.org/2000/svg">
<path d="M16.6783 14.9788C16.04 14.1795 15.0877 13.7205 14.0649 13.7205C13.042 13.7205 12.0897 14.1795 11.4514 14.9788L3.80344 24.5768C2.99707 25.5896 2.84505 26.9436 3.40579 28.1094C3.96854 29.2752 5.12123 30 6.41586 30H21.7108C23.0055 30 24.1591 29.2752 24.7209 28.1094C25.2826 26.9436 25.1296 25.5896 24.3232 24.5768L16.6783 14.9788ZM23.09 27.3231C22.8293 27.8648 22.3138 28.1869 21.7128 28.1869H6.41686C5.81485 28.1869 5.30042 27.8648 5.03968 27.3231C4.77794 26.7815 4.8464 26.1765 5.2219 25.7064L12.8699 16.1094C13.4538 15.3765 14.6769 15.3765 15.2608 16.1094L22.9088 25.7064C23.2833 26.1775 23.3518 26.7815 23.09 27.3231Z" fill="white"/>
<path d="M14.0648 0C6.31007 0 0 6.30906 0 14.0638C0 16.8272 0.801342 19.499 2.31544 21.7913C2.58926 22.2081 3.15403 22.3218 3.57081 22.048C3.98859 21.7721 4.10336 21.2104 3.82752 20.7926C2.50872 18.7963 1.81309 16.4698 1.81309 14.0638C1.81309 7.30772 7.30872 1.81208 14.0648 1.81208C20.8208 1.81208 26.3164 7.30772 26.3164 14.0638C26.3164 16.4698 25.6208 18.7973 24.302 20.7926C24.0262 21.2104 24.1409 21.7721 24.5587 22.048C24.7117 22.1497 24.8859 22.198 25.057 22.198C25.351 22.198 25.6399 22.054 25.8141 21.7913C27.3282 19.499 28.1295 16.8262 28.1295 14.0638C28.1295 6.30906 21.8195 0 14.0648 0Z" fill="white"/>
<path d="M21.5294 18.1319C21.6431 18.1792 21.7599 18.2013 21.8767 18.2013C22.232 18.2013 22.5693 17.9909 22.7133 17.6416C23.1874 16.497 23.428 15.2929 23.428 14.0627C23.428 8.90032 19.227 4.70032 14.0646 4.70032C8.90218 4.70032 4.70117 8.90032 4.70117 14.0627C4.70117 15.2939 4.94178 16.497 5.41594 17.6416C5.60721 18.1047 6.13473 18.3211 6.59983 18.1309C7.06191 17.9406 7.28137 17.41 7.08909 16.947C6.70755 16.0268 6.51426 15.0554 6.51426 14.0637C6.51426 9.90099 9.90084 6.5134 14.0646 6.5134C18.2284 6.5134 21.6149 9.90099 21.6149 14.0637C21.6149 15.0554 21.4216 16.0268 21.0401 16.949C20.8478 17.4121 21.0673 17.9416 21.5294 18.1319Z" fill="white"/>
<path d="M14.0647 9.39276C12.5023 9.39276 11.0496 10.176 10.1788 11.4887C9.90294 11.9055 10.0157 12.4683 10.4335 12.7451C10.8482 13.022 11.413 12.9082 11.6888 12.4914C12.2224 11.686 13.1113 11.2058 14.0647 11.2058C15.018 11.2058 15.907 11.6871 16.4405 12.4914C16.6147 12.7542 16.9026 12.8961 17.1966 12.8961C17.3687 12.8961 17.5429 12.8478 17.6959 12.7451C18.1137 12.4683 18.2264 11.9065 17.9506 11.4887C17.0798 10.176 15.6271 9.39276 14.0647 9.39276Z" fill="white"/>
</svg>
